<svg width="231" height="201" viewBox="0 0 231 201" fill="none" xmlns="http://www.w3.org/2000/svg">
<rect y="79" width="231" height="94" rx="10" fill="#00171D"/>
<rect x="19" y="157" width="192" height="44" rx="10" fill="#00171D"/>
<path d="M36.3677 158.222C24.9301 158.222 16.6356 151.761 13.5797 141.284C13.4051 140.498 13.7543 140.062 14.4528 139.887L23.2712 137.53C23.9697 137.355 24.4062 137.617 24.6681 138.316C26.5017 143.292 30.1687 146.697 36.3677 146.697C43.0906 146.697 47.3688 143.03 47.3688 137.442C47.3688 131.855 42.7414 128.799 35.6692 128.799H32.9626C32.2641 128.799 31.8276 128.362 31.8276 127.664V119.893C31.8276 119.195 32.2641 118.758 32.9626 118.758H35.6692C41.6063 118.758 45.7099 115.702 45.7099 111.249C45.7099 106.622 41.6937 103.217 36.1058 103.217C30.6052 103.217 27.0255 106.622 25.192 111.599C24.9301 112.297 24.4935 112.559 23.795 112.384L14.9767 110.027C14.2782 109.852 13.929 109.416 14.1036 108.63C17.1594 98.1528 25.3666 91.6919 36.3677 91.6919C48.7658 91.6919 57.9334 99.0259 57.9334 109.067C57.9334 115.353 54.179 120.592 47.8927 123.473C55.1395 125.918 59.5923 131.331 59.5923 139.101C59.5923 150.539 50.1628 158.222 36.3677 158.222ZM89.5541 157H78.6403C77.7672 157 77.4179 156.389 77.9418 155.603L94.0942 133.426C91.9114 134.299 89.6414 134.736 87.1094 134.736C75.3225 134.736 67.028 126.092 67.028 113.519C67.028 100.51 76.4575 91.6919 90.3398 91.6919C104.222 91.6919 113.652 101.121 113.652 114.131C113.652 121.901 110.858 128.886 102.039 141.022L90.951 156.302C90.6018 156.738 90.1652 157 89.5541 157ZM90.4272 124.521C96.8881 124.521 101.428 120.242 101.428 113.869C101.428 107.495 96.8881 103.217 90.4272 103.217C83.9662 103.217 79.4261 107.495 79.4261 113.869C79.4261 120.242 83.9662 124.521 90.4272 124.521ZM165.2 157H123.116C122.418 157 121.981 156.563 121.981 155.865V152.984C121.981 152.46 122.156 152.023 122.505 151.587L138.308 133.775C149.484 121.203 152.19 116.837 152.19 111.162C152.19 106.273 148.523 103.217 142.848 103.217C137.871 103.217 134.03 106.098 132.022 111.599C131.76 112.297 131.323 112.559 130.625 112.384L121.719 109.94C121.021 109.765 120.671 109.329 120.933 108.543C124.251 98.0655 132.458 91.6919 143.459 91.6919C155.945 91.6919 164.414 99.0259 164.414 109.94C164.414 118.583 161.271 125.219 146.864 140.498L141.8 145.912H165.2C165.898 145.912 166.335 146.348 166.335 147.047V155.865C166.335 156.563 165.898 157 165.2 157ZM190.754 157H179.84C179.054 157 178.617 156.476 178.967 155.69L201.58 104.003H172.942C172.244 104.003 171.807 103.566 171.807 102.868V94.0492C171.807 93.3508 172.244 92.9142 172.942 92.9142H215.812C216.51 92.9142 216.947 93.3508 216.947 94.0492V97.0178C216.947 97.5416 216.859 97.9782 216.685 98.4148L192.063 156.127C191.801 156.651 191.365 157 190.754 157Z" fill="white"/>
<path d="M72.44 191.232H69.944C69.752 191.232 69.632 191.112 69.632 190.92V173.88C69.632 173.688 69.752 173.568 69.944 173.568H72.2C72.392 173.568 72.536 173.664 72.536 173.88L72.608 175.272C73.496 174.048 74.936 173.328 76.664 173.328C80.216 173.328 82.472 175.968 82.472 179.784C82.472 183.6 80.216 186.24 76.664 186.24C75.032 186.24 73.664 185.592 72.752 184.488V190.92C72.752 191.112 72.632 191.232 72.44 191.232ZM75.896 183.408C77.888 183.408 79.256 181.92 79.256 179.784C79.256 177.648 77.888 176.16 75.896 176.16C73.904 176.16 72.536 177.648 72.536 179.784C72.536 181.92 73.904 183.408 75.896 183.408ZM89.495 186H86.999C86.807 186 86.687 185.88 86.687 185.688V173.88C86.687 173.688 86.807 173.568 86.999 173.568H89.255C89.447 173.568 89.591 173.664 89.591 173.88L89.663 175.44C90.503 174.096 91.967 173.4 93.455 173.4C93.815 173.4 94.055 173.424 94.295 173.472C94.487 173.52 94.559 173.64 94.559 173.808V176.28C94.559 176.496 94.439 176.568 94.223 176.544C93.911 176.52 93.551 176.448 93.071 176.448C91.391 176.448 89.807 177.6 89.807 179.568V185.688C89.807 185.88 89.687 186 89.495 186ZM103.973 186.24C99.989 186.24 97.397 183.552 97.397 179.784C97.397 176.016 99.989 173.328 103.973 173.328C107.957 173.328 110.549 176.016 110.549 179.784C110.549 183.552 107.957 186.24 103.973 186.24ZM103.973 183.408C105.965 183.408 107.333 181.92 107.333 179.784C107.333 177.648 105.965 176.16 103.973 176.16C101.981 176.16 100.613 177.648 100.613 179.784C100.613 181.92 101.981 183.408 103.973 183.408ZM116.334 171.36C115.302 171.36 114.51 170.664 114.51 169.632C114.51 168.6 115.302 167.904 116.334 167.904C117.366 167.904 118.158 168.6 118.158 169.632C118.158 170.664 117.366 171.36 116.334 171.36ZM113.526 191.472C111.774 191.472 110.43 190.656 109.758 189.024C109.686 188.832 109.758 188.712 109.95 188.64L111.918 187.896C112.086 187.824 112.23 187.896 112.326 188.064C112.518 188.448 112.806 188.64 113.43 188.64C114.342 188.64 114.774 188.04 114.774 186.624V173.88C114.774 173.688 114.894 173.568 115.086 173.568H117.582C117.774 173.568 117.894 173.688 117.894 173.88V186.36C117.894 189.6 116.454 191.472 113.526 191.472ZM128.397 186.24C124.485 186.24 122.109 183.552 122.109 179.784C122.109 176.016 124.485 173.328 128.397 173.328C132.213 173.328 134.397 176.16 134.277 180.432C134.253 180.648 134.133 180.744 133.941 180.744H125.421C125.709 182.448 126.765 183.48 128.421 183.48C129.693 183.48 130.581 183 131.157 182.064C131.253 181.896 131.397 181.872 131.565 181.92L133.701 182.664C133.893 182.736 133.965 182.88 133.869 183.072C132.765 185.256 130.701 186.24 128.397 186.24ZM125.469 178.416H130.941C130.653 176.952 129.717 176.088 128.373 176.088C126.909 176.088 125.853 176.928 125.469 178.416ZM143.93 186.24C139.994 186.24 137.546 183.6 137.546 179.784C137.546 175.968 140.018 173.328 143.906 173.328C146.69 173.328 148.634 174.48 149.546 176.928C149.618 177.12 149.522 177.288 149.33 177.336L147.266 177.936C147.098 177.984 146.954 177.912 146.858 177.744C146.306 176.688 145.394 176.16 144.098 176.16C141.842 176.16 140.762 177.816 140.762 179.784C140.762 181.752 141.842 183.408 144.098 183.408C145.394 183.408 146.354 182.856 146.882 181.752C146.978 181.584 147.122 181.512 147.29 181.56L149.57 182.112C149.762 182.16 149.834 182.304 149.762 182.496C148.778 185.064 146.666 186.24 143.93 186.24ZM158.669 186.24C155.981 186.24 154.493 184.56 154.493 181.2V176.352H152.669C152.477 176.352 152.357 176.232 152.357 176.04V173.88C152.357 173.688 152.477 173.568 152.669 173.568H154.493V170.232C154.493 170.04 154.613 169.92 154.805 169.92H157.301C157.493 169.92 157.613 170.04 157.613 170.232V173.568H160.565C160.757 173.568 160.877 173.688 160.877 173.88V176.04C160.877 176.232 160.757 176.352 160.565 176.352H157.613V181.392C157.613 182.736 158.045 183.408 159.005 183.408C159.413 183.408 159.701 183.24 159.941 182.808C160.037 182.64 160.181 182.568 160.373 182.664L162.245 183.504C162.437 183.6 162.485 183.768 162.341 184.008C161.453 185.64 160.085 186.24 158.669 186.24Z" fill="white"/>
<rect x="28" y="178" width="34" height="4" rx="2" fill="#E6873D"/>
<rect x="169" y="178" width="34" height="4" rx="2" fill="#E6873D"/>
<path d="M210 80C210 69.4943 207.543 59.0914 202.769 49.3853C197.994 39.6793 190.997 30.8601 182.175 23.4315C173.354 16.0028 162.881 10.11 151.355 6.08964C139.829 2.06926 127.476 -4.59221e-07 115 0C102.524 4.59221e-07 90.171 2.06926 78.6451 6.08964C67.1191 10.11 56.6464 16.0028 47.8249 23.4315C39.0033 30.8601 32.0056 39.6793 27.2314 49.3853C22.4572 59.0914 20 69.4943 20 80L115 80H210Z" fill="#00171D"/>
<mask id="mask0_17_31" style="mask-type:alpha" maskUnits="userSpaceOnUse" x="35" y="13" width="160" height="66">
<path d="M195 79C195 70.3328 192.931 61.7504 188.91 53.7429C184.89 45.7354 178.997 38.4596 171.569 32.331C164.14 26.2023 155.321 21.3408 145.615 18.024C135.909 14.7071 125.506 13 115 13C104.494 13 94.0914 14.7071 84.3853 18.024C74.6793 21.3408 65.8601 26.2023 58.4315 32.331C51.0028 38.4596 45.11 45.7354 41.0896 53.7429C37.0693 61.7504 35 70.3328 35 79L115 79H195Z" fill="#169FA7"/>
</mask>
<g mask="url(#mask0_17_31)">
<path d="M195 79C195 70.3328 192.931 61.7504 188.91 53.7429C184.89 45.7354 178.997 38.4596 171.569 32.331C164.14 26.2023 155.321 21.3408 145.615 18.024C135.909 14.7071 125.506 13 115 13C104.494 13 94.0914 14.7071 84.3853 18.024C74.6793 21.3408 65.8601 26.2023 58.4315 32.331C51.0028 38.4596 45.11 45.7354 41.0896 53.7429C37.0693 61.7504 35 70.3328 35 79L115 79H195Z" fill="#169FA7"/>
<rect x="31" y="55" width="45" height="10" rx="5" fill="#D2FEFF"/>
<rect x="64" y="20" width="45" height="10" rx="5" fill="#D2FEFF"/>
<rect x="154" y="55" width="45" height="10" rx="5" fill="#D2FEFF"/>
</g>
<path d="M111 43C111 41.8954 111.895 41 113 41H117C118.105 41 119 41.8954 119 43V79.5C119 80.6046 118.105 81.5 117 81.5H113C111.895 81.5 111 80.6046 111 79.5V43Z" fill="#00171D"/>
<path d="M130 49.5C131.105 49.5 132 50.3954 132 51.5V55.5C132 56.6046 131.105 57.5 130 57.5L100 57.5C98.8954 57.5 98 56.6046 98 55.5L98 51.5C98 50.3954 98.8954 49.5 100 49.5L130 49.5Z" fill="#00171D"/>
</svg>
